<?xml version="1.0" encoding="UTF-8"?>
<svg version="1.1" xmlns="http://www.w3.org/2000/svg" width="192" height="170">
<path d="M0 0 C15.47978254 12.35663124 23.9419373 28.39963401 28.13427734 47.62304688 C29.55740234 47.77773437 29.55740234 47.77773437 31.00927734 47.93554688 C34.13427734 48.62304688 34.13427734 48.62304688 36.13427734 51.62304688 C37.97910177 67.77598633 33.92351412 84.99228137 25.13427734 98.62304688 C21.17050527 103.37209454 15.82707981 106.0056053 10.53662109 109.06054688 C8.23383994 110.55829072 6.5607177 112.05804021 4.69677734 114.06054688 C-7.88038829 127.40353524 -27.04020865 133.00516385 -44.85400391 133.61914062 C-65.35269802 133.88931273 -84.41037804 125.80288483 -99.01806641 111.62304688 C-103.50876969 107.04536769 -107.22606528 101.8895208 -110.86572266 96.62304688 C-111.91115234 96.78417969 -112.95658203 96.9453125 -114.03369141 97.11132812 C-117.13218948 97.5250929 -120.06006293 97.78629991 -123.17822266 97.81054688 C-124.01998047 97.82472656 -124.86173828 97.83890625 -125.72900391 97.85351562 C-127.86572266 97.62304688 -127.86572266 97.62304688 -129.86572266 95.62304688 C-130.61490317 91.26734621 -130.502626 87.66096343 -128.17822266 83.87304688 C-127.41509766 82.80054687 -126.65197266 81.72804688 -125.86572266 80.62304688 C-122.1803131 73.42364215 -120.53730249 66.80855919 -120.30322266 58.81054688 C-119.65697388 37.66261271 -111.65336045 19.08488498 -96.41259766 4.23242188 C-69.45950838 -19.49275252 -28.87871824 -21.31326496 0 0 Z " fill="#F7F7F7" transform="translate(140.86572265625,27.376953125)"/>
<path d="M0 0 C15.47978254 12.35663124 23.9419373 28.39963401 28.13427734 47.62304688 C29.55740234 47.77773437 29.55740234 47.77773437 31.00927734 47.93554688 C34.13427734 48.62304688 34.13427734 48.62304688 36.13427734 51.62304688 C37.97910177 67.77598633 33.92351412 84.99228137 25.13427734 98.62304688 C21.17050527 103.37209454 15.82707981 106.0056053 10.53662109 109.06054688 C8.23383994 110.55829072 6.5607177 112.05804021 4.69677734 114.06054688 C-7.88038829 127.40353524 -27.04020865 133.00516385 -44.85400391 133.61914062 C-65.35269802 133.88931273 -84.41037804 125.80288483 -99.01806641 111.62304688 C-103.50876969 107.04536769 -107.22606528 101.8895208 -110.86572266 96.62304688 C-111.91115234 96.78417969 -112.95658203 96.9453125 -114.03369141 97.11132812 C-117.13218948 97.5250929 -120.06006293 97.78629991 -123.17822266 97.81054688 C-124.01998047 97.82472656 -124.86173828 97.83890625 -125.72900391 97.85351562 C-127.86572266 97.62304688 -127.86572266 97.62304688 -129.86572266 95.62304688 C-130.61490317 91.26734621 -130.502626 87.66096343 -128.17822266 83.87304688 C-127.41509766 82.80054687 -126.65197266 81.72804688 -125.86572266 80.62304688 C-122.1803131 73.42364215 -120.53730249 66.80855919 -120.30322266 58.81054688 C-119.65697388 37.66261271 -111.65336045 19.08488498 -96.41259766 4.23242188 C-69.45950838 -19.49275252 -28.87871824 -21.31326496 0 0 Z M-99.61572266 15.81054688 C-110.11508228 29.24521134 -115.92942912 45.50988694 -114.86572266 62.62304688 C-114.53572266 63.28304687 -114.20572266 63.94304687 -113.86572266 64.62304688 C-114.53076172 66.91381836 -114.53076172 66.91381836 -115.63134766 69.74414062 C-116.02708984 70.76185547 -116.42283203 71.77957031 -116.83056641 72.828125 C-117.46671875 74.42817383 -117.46671875 74.42817383 -118.11572266 76.06054688 C-118.72867188 77.65479492 -118.72867188 77.65479492 -119.35400391 79.28125 C-119.75490234 80.30025391 -120.15580078 81.31925781 -120.56884766 82.36914062 C-120.93655273 83.3042749 -121.30425781 84.23940918 -121.68310547 85.20288086 C-122.86572266 87.62304688 -122.86572266 87.62304688 -124.50927734 89.26391602 C-126.21892623 90.65691586 -126.21892623 90.65691586 -125.86572266 93.62304688 C-121.81867685 92.89899913 -117.97501864 91.788584 -114.05322266 90.56054688 C-112.31105469 90.01720703 -112.31105469 90.01720703 -110.53369141 89.46289062 C-109.21304688 89.04716797 -109.21304688 89.04716797 -107.86572266 88.62304688 C-107.63240234 89.20570312 -107.39908203 89.78835937 -107.15869141 90.38867188 C-99.97190545 106.53989403 -84.94112579 118.05790132 -68.86572266 124.62304688 C-51.43400342 130.7495795 -31.93867861 128.82840422 -15.35205078 121.24316406 C-8.58563837 117.97016001 -2.19703798 113.96664634 3.13427734 108.62304688 C3.13427734 107.96304688 3.13427734 107.30304688 3.13427734 106.62304688 C1.81427734 106.95304687 0.49427734 107.28304687 -0.86572266 107.62304688 C-0.86572266 106.96304688 -0.86572266 106.30304688 -0.86572266 105.62304688 C1.05240234 105.31367188 1.05240234 105.31367188 3.00927734 104.99804688 C10.9626974 103.19443666 18.20333272 99.04430209 22.82568359 92.20898438 C28.9066504 80.19226787 31.57984897 65.99019575 31.13427734 52.62304688 C29.81427734 52.29304688 28.49427734 51.96304688 27.13427734 51.62304688 C26.80427734 52.28304687 26.47427734 52.94304687 26.13427734 53.62304688 C23.57177734 54.24804688 23.57177734 54.24804688 21.13427734 54.62304688 C21.46427734 54.29304688 21.79427734 53.96304688 22.13427734 53.62304688 C23.52797499 39.40733085 16.43993782 26.79574649 8.03662109 15.90429688 C-5.25250331 0.27570773 -22.28302131 -7.96751051 -42.58837891 -9.69335938 C-64.87459518 -10.4198291 -84.99554876 -0.97923124 -99.61572266 15.81054688 Z " fill="#EBEBEB" transform="translate(140.86572265625,27.376953125)"/>
<path d="M0 0 C1.32 0.33 2.64 0.66 4 1 C4.73769916 14.77038438 1.8031004 33.37521085 -7.17578125 44.25390625 C-18.7287221 55.31207447 -33.57977587 56.2033325 -48.6875 56.1875 C-49.73623291 56.18858765 -49.73623291 56.18858765 -50.80615234 56.18969727 C-64.93380163 56.18808783 -78.9312306 55.31066831 -93 54 C-93 52.02 -93 50.04 -93 48 C-90.52075612 47.97262185 -88.04182484 47.95298196 -85.5625 47.9375 C-84.87478516 47.92912109 -84.18707031 47.92074219 -83.47851562 47.91210938 C-79.92813469 47.89559598 -76.58204102 48.05162537 -73.046875 48.48828125 C-66.40263624 49.29166726 -59.7097611 49.22340554 -53.02661133 49.24023438 C-50.70292283 49.24993561 -48.38012253 49.28103849 -46.05664062 49.3125 C-34.89638268 49.39181027 -21.53200764 49.2939051 -13 41 C-8.89504123 34.96076746 -6.83337893 28.00559427 -5 21 C-5.50660156 21.83144531 -5.50660156 21.83144531 -6.0234375 22.6796875 C-6.69246094 23.76636719 -6.69246094 23.76636719 -7.375 24.875 C-8.03628906 25.95394531 -8.03628906 25.95394531 -8.7109375 27.0546875 C-10 29 -10 29 -12 31 C-14.625 30.625 -14.625 30.625 -17 30 C-17.57194116 21.13491197 -15.68976432 14.05846421 -10.125 7 C-7.41273641 4.05308765 -4.90335653 2.99853306 -1 2 C-0.67 1.34 -0.34 0.68 0 0 Z " fill="#0E0F0F" transform="translate(168,79)"/>
<path d="M0 0 C3.71640139 -0.27028374 6.457201 -0.180933 10 1 C10 1.66 10 2.32 10 3 C10.61875 3.28875 11.2375 3.5775 11.875 3.875 C14 5 14 5 16 7 C16.58389752 9.17660808 17.1180913 11.36668521 17.625 13.5625 C19.34627349 19.95486299 21.67151217 23.74679649 26.390625 28.328125 C28 30 28 30 28 32 C32.29 32 36.58 32 41 32 C41 32.99 41 33.98 41 35 C40.01 34.67 39.02 34.34 38 34 C35.99124558 34.27571139 33.98821313 34.60235737 32 35 C32.45375 36.2375 32.9075 37.475 33.375 38.75 C35.24627687 44.35491977 36.44902383 50.11373786 37 56 C36.505 56.99 36.505 56.99 36 58 C35.34 58 34.68 58 34 58 C33.938125 56.845 33.87625 55.69 33.8125 54.5 C33.22381018 49.50505606 30.89336907 46.01441612 28 42 C28 44.31 28 46.62 28 49 C28.66 49 29.32 49 30 49 C30 51.31 30 53.62 30 56 C29.01 56.33 28.02 56.66 27 57 C27.0825 55.989375 27.165 54.97875 27.25 53.9375 C26.98505592 49.76463081 26.19262274 48.0834184 24 44.703125 C23 43 23 43 22.125 39.6875 C21.75375 38.800625 21.3825 37.91375 21 37 C19.01363702 36.29373761 17.01151741 35.63106429 15 35 C12.96896218 33.14305114 11.60931502 31.27197414 10 29 C10 28.34 10 27.68 10 27 C6.32343854 26.78096369 6.32343854 26.78096369 3 28.1875 C2.34 28.455625 1.68 28.72375 1 29 C-0.67063747 28.00664799 -2.33675599 27.00568242 -4 26 C-7.58343976 25.83322718 -7.58343976 25.83322718 -11 26 C-11.99 25.67 -12.98 25.34 -14 25 C-14.33 23.02 -14.66 21.04 -15 19 C-11.7 19.33 -8.4 19.66 -5 20 C-5.350625 19.236875 -5.70125 18.47375 -6.0625 17.6875 C-7 15 -7 15 -6 12 C-5.34 12 -4.68 12 -4 12 C-4.33 11.401875 -4.66 10.80375 -5 10.1875 C-6 8 -6 8 -6 5 C-5.38125 4.731875 -4.7625 4.46375 -4.125 4.1875 C-1.7004767 3.04443152 -1.7004767 3.04443152 0 0 Z " fill="#2B2B2C" transform="translate(104,25)"/>
<path d="M0 0 C14.08836617 10.75164787 23.59699585 24.58492789 27.0859375 42.05078125 C27.33440948 44.8287794 27.30893124 47.26335945 27.0859375 50.05078125 C26.4259375 50.05078125 25.7659375 50.05078125 25.0859375 50.05078125 C24.95638672 49.19419922 24.95638672 49.19419922 24.82421875 48.3203125 C21.56781654 29.52878051 12.30522571 13.55908426 -3.1015625 2.23828125 C-16.21029603 -6.69133166 -31.32101063 -9.57553247 -46.9140625 -8.94921875 C-47.63851562 -8.94277344 -48.36296875 -8.93632812 -49.109375 -8.9296875 C-60.9478585 -8.32200869 -72.90426934 -2.31939189 -81.9140625 5.05078125 C-82.61917969 5.59476563 -83.32429688 6.13875 -84.05078125 6.69921875 C-96.59104244 16.87474497 -102.72738034 31.56725885 -105.69140625 47.046875 C-105.82272949 47.73048096 -105.95405273 48.41408691 -106.08935547 49.1184082 C-106.46157103 51.09612606 -106.8151666 53.07732068 -107.16796875 55.05859375 C-107.41417969 56.04601562 -107.66039062 57.0334375 -107.9140625 58.05078125 C-108.9040625 58.54578125 -108.9040625 58.54578125 -109.9140625 59.05078125 C-111.12894824 39.5226178 -103.36472405 22.99995794 -91.1015625 8.36328125 C-67.12267726 -17.77876638 -28.36419711 -18.97283426 0 0 Z " fill="#1E1E1E" transform="translate(135.9140625,30.94921875)"/>
<path d="M0 0 C1.66611905 -0.042721 3.33382885 -0.04063832 5 0 C6 1 6 1 6.0625 4.5625 C6.041875 5.696875 6.02125 6.83125 6 8 C5.01 8.33 4.02 8.66 3 9 C3.495 11.475 3.495 11.475 4 14 C4.66 14 5.32 14 6 14 C6.66 15.65 7.32 17.3 8 19 C9.32 19 10.64 19 12 19 C11.6875 20.9375 11.6875 20.9375 11 23 C10.01 23.33 9.02 23.66 8 24 C8 24.66 8 25.32 8 26 C6.35 26.33 4.7 26.66 3 27 C2.34 25.35 1.68 23.7 1 22 C-1.60760846 22.0330077 -4.20662846 22.1001148 -6.8125 22.1875 C-7.91948242 22.19620117 -7.91948242 22.19620117 -9.04882812 22.20507812 C-11.49564662 22.25316515 -11.49564662 22.25316515 -15 23 C-16.97942237 25.31032582 -16.97942237 25.31032582 -18 28 C-21.31034483 31.84427141 -21.31034483 31.84427141 -23.9375 32.4375 C-27.14599812 33.31254494 -28.79451387 35.61072336 -31 38 C-31.66 37.34 -32.32 36.68 -33 36 C-32.13375 35.14277344 -31.2675 34.28554687 -30.375 33.40234375 C-29.24908847 32.24828443 -28.12413845 31.0932865 -27 29.9375 C-26.42765625 29.37611328 -25.8553125 28.81472656 -25.265625 28.23632812 C-22.21156356 25.05501413 -21.05078283 23.77947609 -20.75390625 19.22265625 C-20.83511719 18.15917969 -20.91632812 17.09570312 -21 16 C-18.9375 13.5 -18.9375 13.5 -16 12 C-12.25 12.125 -12.25 12.125 -9 13 C-8.67 13.66 -8.34 14.32 -8 15 C-5.87423218 15.46651207 -5.87423218 15.46651207 -3.4375 15.625 C-2.61121094 15.69976562 -1.78492187 15.77453125 -0.93359375 15.8515625 C-0.29550781 15.90054688 0.34257813 15.94953125 1 16 C0.505 13.525 0.505 13.525 0 11 C-0.33 11.66 -0.66 12.32 -1 13 C-1.66 13 -2.32 13 -3 13 C-3 13.66 -3 14.32 -3 15 C-6.67420866 14.69381595 -7.78135513 14.24228216 -10.3125 11.4375 C-10.869375 10.633125 -11.42625 9.82875 -12 9 C-5.5 5 -5.5 5 -1 5 C-0.67 3.35 -0.34 1.7 0 0 Z " fill="#171718" transform="translate(71,42)"/>
<path d="M0 0 C0.66 0.33 1.32 0.66 2 1 C2.3403125 2.2684375 2.3403125 2.2684375 2.6875 3.5625 C4.26112996 7.6839118 6.53262442 10.09966163 9.5390625 13.265625 C11 15 11 15 11 17 C15.29 17 19.58 17 24 17 C24 17.99 24 18.98 24 20 C23.01 19.67 22.02 19.34 21 19 C18.99124558 19.27571139 16.98821313 19.60235737 15 20 C15.680625 21.85625 15.680625 21.85625 16.375 23.75 C18.24627687 29.35491977 19.44902383 35.11373786 20 41 C19.67 41.66 19.34 42.32 19 43 C18.34 43 17.68 43 17 43 C16.938125 41.845 16.87625 40.69 16.8125 39.5 C16.22381018 34.50505606 13.89336907 31.01441612 11 27 C11 29.31 11 31.62 11 34 C11.66 34 12.32 34 13 34 C13 36.31 13 38.62 13 41 C11.515 41.495 11.515 41.495 10 42 C10.12375 40.4840625 10.12375 40.4840625 10.25 38.9375 C9.98505592 34.76463081 9.19262274 33.0834184 7 29.703125 C6 28 6 28 5.125 24.6875 C4.75375 23.800625 4.3825 22.91375 4 22 C2.01363702 21.29373761 0.01151741 20.63106429 -2 20 C-4.03103782 18.14305114 -5.39068498 16.27197414 -7 14 C-7 13.34 -7 12.68 -7 12 C-8.32 11.67 -9.64 11.34 -11 11 C-10.21625 10.79375 -9.4325 10.5875 -8.625 10.375 C-5.09902395 8.52806016 -5.1719773 6.67219553 -4 3 C-1.875 2.125 -1.875 2.125 0 2 C0 1.34 0 0.68 0 0 Z " fill="#19191A" transform="translate(121,40)"/>
<path d="M0 0 C2.125 0.375 2.125 0.375 4 1 C2.63408831 4.54243452 1.09068516 7.92627929 -0.625 11.3125 C-1.07101563 12.19550781 -1.51703125 13.07851562 -1.9765625 13.98828125 C-2.31429687 14.65214844 -2.65203125 15.31601563 -3 16 C-2.278125 15.175 -1.55625 14.35 -0.8125 13.5 C2 11 2 11 4.75 10.625 C7 11 7 11 8 12 C8.36442858 19.84313681 5.74784453 25.85850957 1 32 C-2 34 -2 34 -4.4375 33.5625 C-5.7059375 33.2840625 -5.7059375 33.2840625 -7 33 C-8.34361148 33.28913158 -9.68032413 33.61614523 -11 34 C-11.70245123 27.50622861 -10.66282012 21.91424231 -8.75 15.75 C-8.54544189 15.07710937 -8.34088379 14.40421875 -8.13012695 13.7109375 C-6.39906304 8.41237665 -3.98639729 3.98639729 0 0 Z " fill="#121315" transform="translate(115,73)"/>
<path d="M0 0 C3.8155903 1.27186343 4.10202208 2.50305097 6.0625 5.9375 C14.86979571 20.10256727 29.00535902 30.11774759 45.28125 34.171875 C50.3590062 35.20894216 55.33266991 35.29512952 60.5 35.25 C61.38558594 35.25773437 62.27117187 35.26546875 63.18359375 35.2734375 C76.88942629 35.23318542 89.82629382 30.93968858 100.78125 22.6484375 C107.03791469 18 107.03791469 18 110 18 C110 20 110 20 108.3046875 21.69921875 C91.56059608 35.40137716 72.4228747 41.04906806 51 39 C36.75522586 36.93283341 24.64959774 30.46218614 14 21 C13.36320312 20.44570312 12.72640625 19.89140625 12.0703125 19.3203125 C7.04715475 14.65435708 3.1775239 9.06530397 0 3 C0 2.01 0 1.02 0 0 Z " fill="#1E1E1E" transform="translate(34,116)"/>
<path d="M0 0 C1.32 0.33 2.64 0.66 4 1 C3.44376712 5.76760311 2.47835319 9.92676742 0.78515625 14.4140625 C0.34623047 15.58710937 -0.09269531 16.76015625 -0.54492188 17.96875 C-1.00447266 19.1753125 -1.46402344 20.381875 -1.9375 21.625 C-2.39318359 22.83929688 -2.84886719 24.05359375 -3.31835938 25.3046875 C-5.16766937 30.22174014 -7.03506428 35.12785897 -9 40 C-7.75283203 39.51273438 -7.75283203 39.51273438 -6.48046875 39.015625 C-2.60461374 37.88462354 0.65603261 37.73395436 4.6875 37.75 C5.99074219 37.74484375 7.29398438 37.7396875 8.63671875 37.734375 C12 38 12 38 15 40 C15 40.99 15 41.98 15 43 C14.3915625 42.95359375 13.783125 42.9071875 13.15625 42.859375 C6.98662917 42.60533179 1.50963485 43.36647174 -4.4375 44.875 C-5.12328125 45.04870117 -5.8090625 45.22240234 -6.515625 45.40136719 C-9.89724735 46.30346664 -12.88849854 47.42653001 -16 49 C-16.99 49 -17.98 49 -19 49 C-18.57863969 46.64038228 -18.15055275 45.1870349 -16.6328125 43.30151367 C-14.55852373 40.37772176 -13.40648782 37.26624293 -12.1875 33.92578125 C-11.80501099 32.90087837 -11.80501099 32.90087837 -11.41479492 31.85527039 C-10.60367208 29.6765881 -9.80190837 27.49458822 -9 25.3125 C-8.4615089 23.86502167 -7.9224517 22.41775382 -7.3828125 20.97070312 C-4.79897728 14.01993588 -2.28109681 7.05714327 0 0 Z " fill="#131416" transform="translate(34,72)"/>
<path d="M0 0 C3.875 1.875 3.875 1.875 5 3 C5.74506596 9.95394896 4.12109193 14.37750523 0 20 C-3.14625836 23.56332051 -5.53788629 25.77930359 -10.3125 26.5 C-13 26 -13 26 -15 24 C-15 23.01 -15 22.02 -15 21 C-15.9075 21.845625 -16.815 22.69125 -17.75 23.5625 C-19.296875 25.00390625 -19.296875 25.00390625 -21 26 C-23.203125 25.65234375 -23.203125 25.65234375 -25 25 C-24.73885847 17.0351832 -22.12541907 11.74953884 -18 5 C-16.68 5 -15.36 5 -14 5 C-14.2165625 5.61488281 -14.433125 6.22976562 -14.65625 6.86328125 C-14.9346875 7.67152344 -15.213125 8.47976562 -15.5 9.3125 C-15.7784375 10.11300781 -16.056875 10.91351563 -16.34375 11.73828125 C-17.13933107 14.08769422 -17.13933107 14.08769422 -17 17 C-16.1028125 15.515 -16.1028125 15.515 -15.1875 14 C-14.1046875 12.515 -14.1046875 12.515 -13 11 C-12.01 11 -11.02 11 -10 11 C-10.33 14.63 -10.66 18.26 -11 22 C-5.85332203 20.02909649 -5.85332203 20.02909649 -3 16 C-1.63761354 11.91284063 -1.56876976 7.89917828 -1.28125 3.6171875 C-1 1 -1 1 0 0 Z " fill="#161719" transform="translate(77,81)"/>
<path d="M0 0 C0.66 0.66 1.32 1.32 2 2 C1.86459104 6.87472241 -0.6116101 9.68690766 -4 13 C-7.3125 13.875 -7.3125 13.875 -10 14 C-10 14.66 -10 15.32 -10 16 C-8.948125 15.54625 -7.89625 15.0925 -6.8125 14.625 C-3.89174547 13.37239999 -0.95705332 12.16489979 2 11 C1.875 13.25 1.875 13.25 1 16 C-3.10211677 19.51610009 -6.61233389 20.79669185 -12 21 C-12.99 20.34 -13.98 19.68 -15 19 C-15.75886224 12.60387538 -14.71536369 9.22159221 -11 4 C-7.43225761 0.33836965 -5.11116926 -0.68148924 0 0 Z " fill="#141517" transform="translate(50,85)"/>
<path d="M0 0 C0.33 0.66 0.66 1.32 1 2 C3.12576782 2.46651207 3.12576782 2.46651207 5.5625 2.625 C6.38878906 2.69976562 7.21507813 2.77453125 8.06640625 2.8515625 C8.70449219 2.90054688 9.34257813 2.94953125 10 3 C10.495 4.98 10.495 4.98 11 7 C7.01652491 8.61492233 3.55996454 9.12096977 -0.6875 9.3125 C-3.51374426 9.47046557 -3.51374426 9.47046557 -6 10 C-8.06196218 12.2140989 -8.06196218 12.2140989 -9 15 C-12.31034483 18.84427141 -12.31034483 18.84427141 -14.9375 19.4375 C-18.14599812 20.31254494 -19.79451387 22.61072336 -22 25 C-22.66 24.34 -23.32 23.68 -24 23 C-23.13375 22.14277344 -22.2675 21.28554687 -21.375 20.40234375 C-20.24908847 19.24828443 -19.12413845 18.0932865 -18 16.9375 C-17.42765625 16.37611328 -16.8553125 15.81472656 -16.265625 15.23632812 C-13.21156356 12.05501413 -12.05078283 10.77947609 -11.75390625 6.22265625 C-11.83511719 5.15917969 -11.91632812 4.09570312 -12 3 C-8.31563071 -1.46590217 -5.42270302 -1.45995851 0 0 Z " fill="#0F0F10" transform="translate(62,55)"/>
<path d="M0 0 C1 1 1 1 1.375 3.3125 C1 6 1 6 -1.3125 8.3125 C-4 10 -4 10 -7 10 C-7.33 9.01 -7.66 8.02 -8 7 C-8.66 7.66 -9.32 8.32 -10 9 C-10 9.99 -10 10.98 -10 12 C-9.195625 12.309375 -8.39125 12.61875 -7.5625 12.9375 C-5 14 -5 14 -4 15 C-4 18.3125 -4 18.3125 -5 22 C-7.09138462 23.99581059 -9.2465013 25.14206777 -12 26 C-14.9375 25.75 -14.9375 25.75 -17 25 C-17.33 23.68 -17.66 22.36 -18 21 C-15.3260876 20.10869587 -12.76276177 19.52268466 -10 19 C-9.67 18.01 -9.34 17.02 -9 16 C-9.78375 15.87625 -10.5675 15.7525 -11.375 15.625 C-14 15 -14 15 -16 13 C-15.86444717 8.12009828 -13.26564752 5.4175381 -10 2 C-6.74993948 -0.30649456 -3.92472211 -0.26164814 0 0 Z " fill="#151618" transform="translate(105,82)"/>
<path d="M0 0 C3.71640139 -0.27028374 6.457201 -0.180933 10 1 C10 1.66 10 2.32 10 3 C10.61875 3.28875 11.2375 3.5775 11.875 3.875 C14 5 14 5 16 7 C16 8.65 16 10.3 16 12 C12.7 11.34 9.4 10.68 6 10 C6 9.34 6 8.68 6 8 C5.34 8 4.68 8 4 8 C4 9.65 4 11.3 4 13 C4.99 13.33 5.98 13.66 7 14 C3.14243493 16.15305957 0.44870215 17.39253254 -4 17 C-4.33 16.01 -4.66 15.02 -5 14 C-5.66 13.67 -6.32 13.34 -7 13 C-6.01 12.67 -5.02 12.34 -4 12 C-4.33 11.401875 -4.66 10.80375 -5 10.1875 C-6 8 -6 8 -6 5 C-5.38125 4.731875 -4.7625 4.46375 -4.125 4.1875 C-1.7004767 3.04443152 -1.7004767 3.04443152 0 0 Z " fill="#29292A" transform="translate(104,25)"/>
<path d="M0 0 C12.94382698 1.5654776 24.07314453 11.83566921 32.1328125 21.578125 C39.97022294 32.36728743 45.76807185 44.43073057 45 58 C44.34 58 43.68 58 43 58 C42.91363281 57.42894531 42.82726562 56.85789063 42.73828125 56.26953125 C39.64553933 38.42242423 30.98320215 22.01239977 16.13378906 11.30078125 C10.96283145 7.7165366 5.73256566 4.58527471 0 2 C0 1.34 0 0.68 0 0 Z " fill="#1B1B1B" transform="translate(118,23)"/>
<path d="M0 0 C0.99 0 1.98 0 3 0 C2.86722656 0.56847656 2.73445313 1.13695313 2.59765625 1.72265625 C1.28982351 7.44084464 0 13.10678167 0 19 C-1.32 18.67 -2.64 18.34 -4 18 C-4 16.68 -4 15.36 -4 14 C-4.66 14 -5.32 14 -6 14 C-6.33 14.99 -6.66 15.98 -7 17 C-9.375 17.625 -9.375 17.625 -12 18 C-14 16 -14 16 -14.08203125 14.01171875 C-13.5483578 9.40975206 -13.08045078 5.67284516 -10 2 C-9.01 2 -8.02 2 -7 2 C-7.50797009 6.3177458 -8.19682779 10.03302114 -10 14 C-9.34 14 -8.68 14 -8 14 C-7.73058594 13.27425781 -7.46117187 12.54851562 -7.18359375 11.80078125 C-6.02008852 9.04753619 -4.69260786 6.68865786 -3.0625 4.1875 C-2.55847656 3.39730469 -2.05445313 2.60710937 -1.53515625 1.79296875 C-1.02855469 1.20128906 -0.52195313 0.60960938 0 0 Z " fill="#151517" transform="translate(137,86)"/>
<path d="M0 0 C0.66 0.66 1.32 1.32 2 2 C1.67 2.66 1.34 3.32 1 4 C-0.08796875 3.7834375 -1.1759375 3.566875 -2.296875 3.34375 C-10.95023039 1.68025109 -19.15156178 0.47408985 -28 1 C-28.77472656 1.0309375 -29.54945312 1.061875 -30.34765625 1.09375 C-35.85216473 1.48207511 -40.59853875 3.13810041 -45.71484375 5.16015625 C-48 6 -48 6 -50 6 C-50.33 5.01 -50.66 4.02 -51 3 C-48.62683882 2.18177267 -46.2517058 1.37031293 -43.875 0.5625 C-43.20984375 0.33240234 -42.5446875 0.10230469 -41.859375 -0.13476562 C-28.24461017 -4.73975961 -13.70128058 -3.95613135 0 0 Z " fill="#1D1D1D" transform="translate(117,21)"/>
<path d="M0 0 C0.598125 0.165 1.19625 0.33 1.8125 0.5 C3.99561962 1.17733535 3.99561962 1.17733535 6.125 0.4375 C6.74375 0.293125 7.3625 0.14875 8 0 C10 2 10 2 10 6 C8.35 5.67 6.7 5.34 5 5 C2.26786641 8.8498246 1.34434905 12.35439482 0.52734375 16.9140625 C0 19 0 19 -2 22 C-2.99 21.67 -3.98 21.34 -5 21 C-3.9478458 3.9478458 -3.9478458 3.9478458 0 0 Z " fill="#18181A" transform="translate(143,85)"/>
<path d="M0 0 C0.33 1.32 0.66 2.64 1 4 C4.63 4 8.26 4 12 4 C11.67 5.98 11.34 7.96 11 10 C9.02 10 7.04 10 5 10 C5 9.01 5 8.02 5 7 C4.34 7 3.68 7 3 7 C2.67 7.99 2.34 8.98 2 10 C1.34 9.34 0.68 8.68 0 8 C-0.5775 8.66 -1.155 9.32 -1.75 10 C-4 12 -4 12 -8 12 C-8 11.34 -8 10.68 -8 10 C-7.34 10 -6.68 10 -6 10 C-6 8.35 -6 6.7 -6 5 C-6.66 5 -7.32 5 -8 5 C-5.96115496 0.48541456 -5.19128917 0 0 0 Z " fill="#232325" transform="translate(62,111)"/>
<path d="M0 0 C1.31996318 3.95988955 0.05810711 6.47187095 -1.25 10.25 C-3.55410449 17.17027787 -5.10289923 23.99803902 -6.32421875 31.18359375 C-6.54722656 32.11300781 -6.77023438 33.04242188 -7 34 C-7.99 34.495 -7.99 34.495 -9 35 C-9.71287567 23.54118362 -7.47978062 11.1830741 -2 1 C-1.34 0.67 -0.68 0.34 0 0 Z " fill="#212121" transform="translate(35,55)"/>
<path d="M0 0 C0.66 0.66 1.32 1.32 2 2 C1.79503906 2.68964844 1.59007813 3.37929687 1.37890625 4.08984375 C-0.34272857 10.0949719 -1.48967955 15.77409051 -2 22 C-2.66 21.01 -3.32 20.02 -4 19 C-4.66 19.33 -5.32 19.66 -6 20 C-6 17.69 -6 15.38 -6 13 C-7.98 12.01 -9.96 11.02 -12 10 C-11.75 8.125 -11.75 8.125 -11 6 C-8.9375 4.75 -8.9375 4.75 -7 4 C-7.33 5.32 -7.66 6.64 -8 8 C-3.06809363 5.81620269 -3.06809363 5.81620269 -0.0625 1.75 C-0.041875 1.1725 -0.02125 0.595 0 0 Z " fill="#DCDCDC" transform="translate(106,84)"/>
<path d="M0 0 C4.95 0 9.9 0 15 0 C15 1.98 15 3.96 15 6 C10.05 6 5.1 6 0 6 C0 4.02 0 2.04 0 0 Z " fill="#E12B31" transform="translate(59,126)"/>
<path d="M0 0 C4.7517398 0.43197635 6.92000054 1.32769295 10 5 C8.68 5 7.36 5 6 5 C6.66 5.66 7.32 6.32 8 7 C8 7.99 8 8.98 8 10 C7.01 10.495 7.01 10.495 6 11 C6 11.66 6 12.32 6 13 C4.35 13 2.7 13 1 13 C1.66 12.34 2.32 11.68 3 11 C1.68 11.33 0.36 11.66 -1 12 C-1 12.33 -1 12.66 -1 13 C-3.31 13 -5.62 13 -8 13 C-8.66 11.35 -9.32 9.7 -10 8 C-8.741875 8.226875 -7.48375 8.45375 -6.1875 8.6875 C-2.93840244 9.10746169 -2.93840244 9.10746169 0.0625 7.9375 C1.44348063 5.08347337 0.73385385 3.0021294 0 0 Z " fill="#8C8C8D" transform="translate(107,32)"/>
<path d="M0 0 C3.83246777 -0.36499693 5.86465013 -0.06516845 9.375 1.625 C12 4 12 4 12.375 7.25 C12.25125 8.1575 12.1275 9.065 12 10 C8.7 9.34 5.4 8.68 2 8 C2 7.34 2 6.68 2 6 C0.68 5.67 -0.64 5.34 -2 5 C-1.34 3.35 -0.68 1.7 0 0 Z " fill="#0D0D0D" transform="translate(108,27)"/>
<path d="M0 0 C1.26264601 4.29299643 0.62950412 6.87831311 -1 11 C-1.99 11 -2.98 11 -4 11 C-4.33 11.66 -4.66 12.32 -5 13 C-6.32 12.67 -7.64 12.34 -9 12 C-9 10.02 -9 8.04 -9 6 C-8.34 6 -7.68 6 -7 6 C-6.67 6.99 -6.34 7.98 -6 9 C-5.67 7.68 -5.34 6.36 -5 5 C-5.66 4.67 -6.32 4.34 -7 4 C-6.67 3.01 -6.34 2.02 -6 1 C-3 0 -3 0 0 0 Z " fill="#3C3C3D" transform="translate(115,110)"/>
<path d="M0 0 C0.89203125 0.01804687 1.7840625 0.03609375 2.703125 0.0546875 C3.71632813 0.08949219 3.71632813 0.08949219 4.75 0.125 C4.42 2.105 4.09 4.085 3.75 6.125 C-0.87 6.125 -5.49 6.125 -10.25 6.125 C-9.25 2.125 -9.25 2.125 -7.515625 0.8828125 C-4.87961061 0.00111114 -2.77372361 -0.07299273 0 0 Z " fill="#1A1A1C" transform="translate(96.25,114.875)"/>
<path d="M0 0 C0 0.66 0 1.32 0 2 C-6.53783541 4.32702616 -12.66329277 5.30004656 -19.5625 5.3125 C-20.26503906 5.31765625 -20.96757813 5.3228125 -21.69140625 5.328125 C-26.7409112 5.2590888 -26.7409112 5.2590888 -29 3 C-27.67548828 2.92652344 -27.67548828 2.92652344 -26.32421875 2.8515625 C-19.53594844 2.42866274 -12.96642455 1.78936195 -6.3046875 0.40234375 C-4 0 -4 0 0 0 Z " fill="#131313" transform="translate(116,150)"/>
<path d="M0 0 C1.32 0.33 2.64 0.66 4 1 C3.71715982 2.77226453 3.42339502 4.542788 3.125 6.3125 C2.96257812 7.29863281 2.80015625 8.28476563 2.6328125 9.30078125 C2 12 2 12 0 15 C-0.66 15 -1.32 15 -2 15 C-2.05429959 13.25034642 -2.09292823 11.50020213 -2.125 9.75 C-2.15980469 8.28820312 -2.15980469 8.28820312 -2.1953125 6.796875 C-1.99862781 3.9803502 -1.44568916 2.39050964 0 0 Z " fill="#1D1E20" transform="translate(84,93)"/>
<path d="M0 0 C2.22265625 0.20703125 2.22265625 0.20703125 5.0625 0.8125 C13.00368306 2.31174893 20.94378968 2.63727963 29 3 C29 3.33 29 3.66 29 4 C27.77023438 4.09087891 27.77023438 4.09087891 26.515625 4.18359375 C24.89914063 4.30927734 24.89914063 4.30927734 23.25 4.4375 C22.18265625 4.51871094 21.1153125 4.59992188 20.015625 4.68359375 C17.14366603 4.87056005 17.14366603 4.87056005 15.09375 5.65625 C11.65861337 6.22022766 8.52778071 5.01981024 5.25 4.0625 C4.20392578 3.76956055 4.20392578 3.76956055 3.13671875 3.47070312 C1.42201027 2.9891754 -0.28934877 2.49574843 -2 2 C-1.34 1.34 -0.68 0.68 0 0 Z " fill="#262626" transform="translate(72,149)"/>
<path d="M0 0 C-1.27742065 3.83226196 -2.64481983 4.26753319 -6.0625 6.3125 C-10.92775612 9.29770937 -15.50622094 12.48480893 -20 16 C-16.37069274 8.44974471 -9.05187212 0 0 0 Z " fill="#1A1A1A" transform="translate(67,25)"/>
<path d="M0 0 C0.33 0 0.66 0 1 0 C1 2.64 1 5.28 1 8 C0.01 8.33 -0.98 8.66 -2 9 C-3.70855022 12.00007271 -3.70855022 12.00007271 -5 15 C-5.78912962 12.43532873 -5.97910876 10.65877645 -5.8125 7.9375 C-5.874375 6.968125 -5.93625 5.99875 -6 5 C-7.32 4.01 -8.64 3.02 -10 2 C-6.7 2.33 -3.4 2.66 0 3 C0 2.01 0 1.02 0 0 Z " fill="#3D3D3E" transform="translate(120,34)"/>
<path d="M0 0 C0.66 0.33 1.32 0.66 2 1 C0.68 3.97 -0.64 6.94 -2 10 C-3.60875 9.7215625 -3.60875 9.7215625 -5.25 9.4375 C-8.40391546 9.0695432 -10.09818492 8.95534657 -13 10 C-12.01 7.69 -11.02 5.38 -10 3 C-8.68 3.33 -7.36 3.66 -6 4 C-6.33 4.66 -6.66 5.32 -7 6 C-6.34 6.33 -5.68 6.66 -5 7 C-5 6.34 -5 5.68 -5 5 C-4 4 -4 4 -1 3 C-0.67 2.01 -0.34 1.02 0 0 Z " fill="#1D1D1F" transform="translate(86,112)"/>
<path d="M0 0 C3.96 0 7.92 0 12 0 C11.67 1.98 11.34 3.96 11 6 C9.02 6 7.04 6 5 6 C5 5.01 5 4.02 5 3 C4.34 3 3.68 3 3 3 C2.67 3.99 2.34 4.98 2 6 C0 3 0 3 0 0 Z " fill="#59595B" transform="translate(62,115)"/>
<path d="M0 0 C0.33 0.66 0.66 1.32 1 2 C1.99 2.33 2.98 2.66 4 3 C1.43774941 6.56884904 0.18118228 7.98638005 -4 9 C-6.7295585 11.47906969 -6.7295585 11.47906969 -9 14 C-9.66 13.34 -10.32 12.68 -11 12 C-7.37 8.04 -3.74 4.08 0 0 Z " fill="#39393A" transform="translate(49,66)"/>
<path d="M0 0 C2.64 0 5.28 0 8 0 C8 1.98 8 3.96 8 6 C5.36 6 2.72 6 0 6 C0 4.02 0 2.04 0 0 Z " fill="#0C0C0C" transform="translate(50,125)"/>
<path d="M0 0 C0.7425 0.78375 1.485 1.5675 2.25 2.375 C4.54433318 4.56504531 6.12158858 5.82731386 9 7 C8.01 7.495 8.01 7.495 7 8 C7 8.66 7 9.32 7 10 C5.35 10.33 3.7 10.66 2 11 C1.7525 10.21625 1.505 9.4325 1.25 8.625 C-0.15389099 5.67682892 -1.00675737 5.0975223 -4 4 C-2.35 4 -0.7 4 1 4 C0.67 2.68 0.34 1.36 0 0 Z " fill="#3B3B3D" transform="translate(72,58)"/>
<path d="M0 0 C0 0.66 0 1.32 0 2 C-0.66 2 -1.32 2 -2 2 C-2.09796875 2.62648438 -2.1959375 3.25296875 -2.296875 3.8984375 C-2.44640625 4.71570313 -2.5959375 5.53296875 -2.75 6.375 C-2.95882812 7.59316406 -2.95882812 7.59316406 -3.171875 8.8359375 C-4 11 -4 11 -6.078125 12.2890625 C-7.02945313 12.64097656 -7.02945313 12.64097656 -8 13 C-9 12 -9 12 -9.0625 8.9375 C-9.041875 7.968125 -9.02125 6.99875 -9 6 C-8.34 6 -7.68 6 -7 6 C-6.67 6.66 -6.34 7.32 -6 8 C-5.34 6.35 -4.68 4.7 -4 3 C-4.99 2.67 -5.98 2.34 -7 2 C-4.35261084 0.5393715 -3.10551666 0 0 0 Z " fill="#202123" transform="translate(134,110)"/>
<path d="M0 0 C1.79323253 0.28187936 3.58457126 0.5758281 5.375 0.875 C6.37273437 1.03742187 7.37046875 1.19984375 8.3984375 1.3671875 C11 2 11 2 13 4 C12.67 4.66 12.34 5.32 12 6 C3.585 4.515 3.585 4.515 -5 3 C-5 2.67 -5 2.34 -5 2 C-3.35 1.67 -1.7 1.34 0 1 C0 0.67 0 0.34 0 0 Z " fill="#272727" transform="translate(106,19)"/>
<path d="M0 0 C0.67578125 1.703125 0.67578125 1.703125 1 4 C-0.14453125 6.359375 -0.14453125 6.359375 -1.8125 8.75 C-2.62654297 9.94882813 -2.62654297 9.94882813 -3.45703125 11.171875 C-3.96621094 11.77515625 -4.47539063 12.3784375 -5 13 C-5.66 13 -6.32 13 -7 13 C-6.70876501 7.02968261 -3.97185616 4.105466 0 0 Z " fill="#EBEBEB" transform="translate(118,89)"/>
<path d="M0 0 C1.66611905 -0.042721 3.33382885 -0.04063832 5 0 C6 1 6 1 6.0625 4.5625 C6.041875 5.696875 6.02125 6.83125 6 8 C3 8 3 8 1.3125 6.8125 C-0.40364695 4.44258278 -0.23187108 2.85974334 0 0 Z " fill="#0B0B0C" transform="translate(71,42)"/>
<path d="M0 0 C1.5625 1.4375 1.5625 1.4375 3 4 C3.10527337 8.78116535 2.31472355 12.80873103 0 17 C-0.33 17 -0.66 17 -1 17 C-1.10477512 11.21408489 -0.99250545 5.70690634 0 0 Z " fill="#373737" transform="translate(27,73)"/>
<path d="M0 0 C0 0.66 0 1.32 0 2 C-1.7902061 2.67057887 -3.58221489 3.3363469 -5.375 4 C-6.37273437 4.37125 -7.37046875 4.7425 -8.3984375 5.125 C-11 6 -11 6 -13 6 C-13.33 5.01 -13.66 4.02 -14 3 C-9.07015675 0.96006486 -5.42039575 -0.40652968 0 0 Z " fill="#1D1D1D" transform="translate(80,21)"/>
<path d="M0 0 C4.7517398 0.43197635 6.92000054 1.32769295 10 5 C8.68 5 7.36 5 6 5 C6.66 5.66 7.32 6.32 8 7 C8 7.99 8 8.98 8 10 C7.34 10 6.68 10 6 10 C6 9.01 6 8.02 6 7 C4.35 6.67 2.7 6.34 1 6 C0.67 4.02 0.34 2.04 0 0 Z " fill="#929292" transform="translate(107,32)"/>
<path d="M0 0 C0.66 0.33 1.32 0.66 2 1 C-1.96 4.96 -5.92 8.92 -10 13 C-10.66 12.67 -11.32 12.34 -12 12 C-8.27653164 7.57905197 -4.70478962 3.42166518 0 0 Z " fill="#C0C0C0" transform="translate(50,27)"/>
<path d="M0 0 C0.66 0 1.32 0 2 0 C2 1.65 2 3.3 2 5 C1.34 5 0.68 5 0 5 C0 6.65 0 8.3 0 10 C-0.99 9.01 -1.98 8.02 -3 7 C-3.99 7.495 -3.99 7.495 -5 8 C-4.67 6.02 -4.34 4.04 -4 2 C-3.34 2.33 -2.68 2.66 -2 3 C-1.34 2.01 -0.68 1.02 0 0 Z " fill="#333335" transform="translate(137,112)"/>
<path d="M0 0 C0.66 1.32 1.32 2.64 2 4 C0.02 4.66 -1.96 5.32 -4 6 C-4 5.34 -4 4.68 -4 4 C-5.65 3.67 -7.3 3.34 -9 3 C-6.38997624 -0.48003168 -4.1689578 -0.27793052 0 0 Z " fill="#434344" transform="translate(88,56)"/>
<path d="M0 0 C0.66 0 1.32 0 2 0 C2 1.32 2 2.64 2 4 C-0.97 4 -3.94 4 -7 4 C-6.67 2.68 -6.34 1.36 -6 0 C-3 -1 -3 -1 0 0 Z " fill="#434344" transform="translate(93,117)"/>
<path d="M0 0 C0.66 0 1.32 0 2 0 C0.58832253 5.26170694 -1.74850232 8.72171358 -5 13 C-5.33 12.34 -5.66 11.68 -6 11 C-5.0390625 8.65234375 -5.0390625 8.65234375 -3.625 5.9375 C-2.93277344 4.58978516 -2.93277344 4.58978516 -2.2265625 3.21484375 C-1 1 -1 1 0 0 Z " fill="#D1D1D1" transform="translate(163,88)"/>
<path d="M0 0 C6.27 0 12.54 0 19 0 C19 0.33 19 0.66 19 1 C17.77023438 1.09087891 17.77023438 1.09087891 16.515625 1.18359375 C14.89914063 1.30927734 14.89914063 1.30927734 13.25 1.4375 C12.18265625 1.51871094 11.1153125 1.59992188 10.015625 1.68359375 C7.09586354 1.88281521 7.09586354 1.88281521 4.796875 2.72265625 C4.20390625 2.81417969 3.6109375 2.90570313 3 3 C2.01 2.01 1.02 1.02 0 0 Z " fill="#3F3F3F" transform="translate(82,152)"/>
<path d="M0 0 C0.66 0.66 1.32 1.32 2 2 C1.86328125 4.09375 1.86328125 4.09375 1.3125 6.5 C1.14363281 7.2940625 0.97476563 8.088125 0.80078125 8.90625 C0 11 0 11 -3 13 C-2.45144652 8.428721 -1.58255197 4.32564205 0 0 Z " fill="#D2D2D2" transform="translate(139,89)"/>
<path d="M0 0 C2.64 0.33 5.28 0.66 8 1 C8 1.99 8 2.98 8 4 C5.39417629 4.93065133 4.35801776 5.14917407 1.75 4.0625 C1.1725 3.711875 0.595 3.36125 0 3 C0 2.01 0 1.02 0 0 Z " fill="#0C0C0D" transform="translate(89,44)"/>
<path d="M0 0 C0.99 0.33 1.98 0.66 3 1 C2.34 3.64 1.68 6.28 1 9 C0.01 8.67 -0.98 8.34 -2 8 C-1.34 5.36 -0.68 2.72 0 0 Z " fill="#929293" transform="translate(113,112)"/>
<path d="M0 0 C2 2 2 2 2 5 C3.65 5 5.3 5 7 5 C6.67 5.66 6.34 6.32 6 7 C2.9375 7.625 2.9375 7.625 0 8 C-0.38063221 5.6739143 -0.71269945 3.33944736 -1 1 C-0.67 0.67 -0.34 0.34 0 0 Z " fill="#1B1C1D" transform="translate(77,69)"/>
<path d="M0 0 C2.31 0.66 4.62 1.32 7 2 C5.02 4.97 5.02 4.97 3 8 C2.01 7.67 1.02 7.34 0 7 C0.66 7 1.32 7 2 7 C2 5.35 2 3.7 2 2 C1.34 2 0.68 2 0 2 C0 1.34 0 0.68 0 0 Z " fill="#737374" transform="translate(54,114)"/>
<path d="M0 0 C0.99 0 1.98 0 3 0 C2.690625 0.5775 2.38125 1.155 2.0625 1.75 C1.07416636 3.84294184 0.4831387 5.74535275 0 8 C-0.99 8 -1.98 8 -3 8 C-1.125 1.125 -1.125 1.125 0 0 Z " fill="#2B2B2D" transform="translate(142,113)"/>
<path d="M0 0 C0.66 0.99 1.32 1.98 2 3 C0.5629191 3.05422947 -0.87475462 3.09289723 -2.3125 3.125 C-3.11300781 3.14820313 -3.91351563 3.17140625 -4.73828125 3.1953125 C-7 3 -7 3 -10 1 C-6.61045199 -0.04293785 -3.53672026 -0.30754089 0 0 Z " fill="#323232" transform="translate(87,19)"/>
<path d="M0 0 C0.66 0.33 1.32 0.66 2 1 C0.68 3.97 -0.64 6.94 -2 10 C-2.99 8.68 -3.98 7.36 -5 6 C-4.01 5.34 -3.02 4.68 -2 4 C-2.66 3.67 -3.32 3.34 -4 3 C-3.01 3 -2.02 3 -1 3 C-0.67 2.01 -0.34 1.02 0 0 Z " fill="#353637" transform="translate(86,112)"/>
<path d="M0 0 C0.66 0 1.32 0 2 0 C2 0.66 2 1.32 2 2 C2.66 2.33 3.32 2.66 4 3 C3.64950425 6.24208567 3.43778819 7.61527704 0.9375 9.8125 C0.298125 10.204375 -0.34125 10.59625 -1 11 C-1.09989518 7.50366865 -0.75810962 4.41149328 0 1 C0 0.67 0 0.34 0 0 Z " fill="#CFCFCF" transform="translate(138,111)"/>
<path d="M0 0 C0 0.66 0 1.32 0 2 C-0.66 2 -1.32 2 -2 2 C-2.33 3.65 -2.66 5.3 -3 7 C-3.33 6.01 -3.66 5.02 -4 4 C-4.99 4 -5.98 4 -7 4 C-6.67 3.01 -6.34 2.02 -6 1 C-3 0 -3 0 0 0 Z " fill="#343436" transform="translate(115,110)"/>
<path d="M0 0 C0.99 0.33 1.98 0.66 3 1 C0.14723863 3.93200474 -2.65079784 6.64315404 -6 9 C-4.47291037 5.56404834 -2.40072955 2.88087546 0 0 Z " fill="#101010" transform="translate(53,32)"/>
<path d="M0 0 C0.66 0 1.32 0 2 0 C2.33 1.65 2.66 3.3 3 5 C0.03 5 -2.94 5 -6 5 C-6.33 4.34 -6.66 3.68 -7 3 C-4.03 3.495 -4.03 3.495 -1 4 C-0.67 2.68 -0.34 1.36 0 0 Z " fill="#9A9A9A" transform="translate(69,53)"/>
<path d="M0 0 C0.66 0 1.32 0 2 0 C3.625 2.5 3.625 2.5 5 5 C3.02 5.99 3.02 5.99 1 7 C0 6 0 6 -0.0625 2.9375 C-0.041875 1.968125 -0.02125 0.99875 0 0 Z " fill="#3D3D3F" transform="translate(125,116)"/>
<path d="M0 0 C0 1.98 0 3.96 0 6 C-1.65 6 -3.3 6 -5 6 C-4.34 5.34 -3.68 4.68 -3 4 C-3.99 3.34 -4.98 2.68 -6 2 C-2.25 0 -2.25 0 0 0 Z " fill="#5E5E5F" transform="translate(113,39)"/>
<path d="M0 0 C1.32 0 2.64 0 4 0 C4 1.65 4 3.3 4 5 C2.68 5 1.36 5 0 5 C0 3.35 0 1.7 0 0 Z " fill="#343436" transform="translate(145,115)"/>
<path d="M0 0 C1.32 0 2.64 0 4 0 C4 1.65 4 3.3 4 5 C2.68 5 1.36 5 0 5 C0 3.35 0 1.7 0 0 Z " fill="#2F2F31" transform="translate(116,115)"/>
<path d="M0 0 C0.99 0.33 1.98 0.66 3 1 C2.67 2.65 2.34 4.3 2 6 C0.35 6 -1.3 6 -3 6 C-2.67 4.68 -2.34 3.36 -2 2 C-2 2.66 -2 3.32 -2 4 C-1.34 4 -0.68 4 0 4 C0 2.68 0 1.36 0 0 Z " fill="#222224" transform="translate(71,115)"/>
<path d="M0 0 C2.0625 0.4375 2.0625 0.4375 4 1 C4 2.32 4 3.64 4 5 C2.0625 4.6875 2.0625 4.6875 0 4 C-0.33 3.01 -0.66 2.02 -1 1 C-0.67 0.67 -0.34 0.34 0 0 Z " fill="#222325" transform="translate(149,86)"/>
<path d="M0 0 C2.31 0.33 4.62 0.66 7 1 C6.01 1.33 5.02 1.66 4 2 C4 2.66 4 3.32 4 4 C1.03 3.67 -1.94 3.34 -5 3 C-5 2.67 -5 2.34 -5 2 C-3.35 1.67 -1.7 1.34 0 1 C0 0.67 0 0.34 0 0 Z " fill="#424242" transform="translate(106,19)"/>
<path d="M0 0 C0.99 0 1.98 0 3 0 C1.95125002 2.62187494 1.35068687 3.79371361 -1.125 5.25 C-1.74375 5.4975 -2.3625 5.745 -3 6 C-1.125 1.125 -1.125 1.125 0 0 Z " fill="#D7D7D7" transform="translate(45,89)"/>
<path d="M0 0 C0.99 0 1.98 0 3 0 C2.67 1.65 2.34 3.3 2 5 C1.01 5 0.02 5 -1 5 C-0.67 3.35 -0.34 1.7 0 0 Z " fill="#1A1B1D" transform="translate(87,83)"/>
<path d="M0 0 C0.99 0 1.98 0 3 0 C3 2.31 3 4.62 3 7 C2.01 7.33 1.02 7.66 0 8 C0 5.36 0 2.72 0 0 Z " fill="#2C2D2E" transform="translate(131,74)"/>
<path d="M0 0 C0.99 0 1.98 0 3 0 C2.34 1.65 1.68 3.3 1 5 C-0.32 4.67 -1.64 4.34 -3 4 C-1.6875 2 -1.6875 2 0 0 Z " fill="#0F0F10" transform="translate(48,69)"/>
<path d="M0 0 C0.33 0.99 0.66 1.98 1 3 C-0.65 4.65 -2.3 6.3 -4 8 C-3.40138258 5.64828869 -2.73075648 3.3140622 -2 1 C-1.34 0.67 -0.68 0.34 0 0 Z " fill="#DBDBDB" transform="translate(62,92)"/>
<path d="M0 0 C0.33 0 0.66 0 1 0 C0.67 2.64 0.34 5.28 0 8 C-0.66 7.67 -1.32 7.34 -2 7 C-2.125 4.625 -2.125 4.625 -2 2 C-1.34 1.34 -0.68 0.68 0 0 Z " fill="#121212" transform="translate(30,69)"/>
</svg>
